<svg width="320" height="320" viewBox="0 0 320 320" fill="none" xmlns="http://www.w3.org/2000/svg">
<rect x="108.144" y="58.9128" width="103.056" height="101.744" fill="#16DF44"/>
<rect x="108.144" y="165.908" width="103.056" height="101.744" fill="#020202"/>
<path d="M160 32C89.6 32 32 89.6 32 160C32 230.4 89.6 288 160 288C230.4 288 288 230.4 288 160C288 89.6 230.4 32 160 32ZM153.6 86.4H166.4L188.8 160.8H173.6L160 115.2L145.6 160.8H130.4L153.6 86.4ZM194.4 217.6L160 191.2L126.4 217.6L116 210.4L128.8 168.8H144L137.6 191.2L157.6 176H164.8L184 191.2L176 168.8H191.2L204 210.4L194.4 217.6Z" fill="white"/>
</svg>
