<svg width="244" height="28" viewBox="0 0 244 28" fill="none" xmlns="http://www.w3.org/2000/svg">
<path d="M5.6235 26.8063L7.46569 21.024H16.4221L18.2643 26.8063H23.8878L15.3313 1.44865H8.56857L0 26.8063H5.6235ZM8.79884 16.839L11.853 7.24326H12.0469L15.101 16.839H8.79884Z" fill="#80FB5D"/>
<path d="M32.6163 27.1777C37.5732 27.1777 40.688 24.2061 40.9304 19.8354H36.0583C35.7553 21.866 34.4464 23.0051 32.6769 23.0051C30.2651 23.0051 28.7017 20.9374 28.7017 17.2972C28.7017 13.7065 30.2772 11.6511 32.6769 11.6511C34.5676 11.6511 35.7795 12.9264 36.0583 14.8208H40.9304C40.7122 10.4253 37.452 7.54042 32.5921 7.54042C26.9443 7.54042 23.4539 11.5397 23.4539 17.3714C23.4539 23.1537 26.8837 27.1777 32.6163 27.1777Z" fill="#80FB5D"/>
<path d="M52.4313 7.78805H48.9287V3.23161H43.7658V7.78805H41.2206V11.7502H43.7658V21.6555C43.7415 25.3824 46.226 27.2272 49.971 27.0663C51.3042 27.0167 52.2495 26.7443 52.7706 26.571L51.9586 22.646C51.7041 22.6955 51.1587 22.8194 50.6739 22.8194C49.6438 22.8194 48.9287 22.4232 48.9287 20.9621V11.7502H52.4313V7.78805Z" fill="#80FB5D"/>
<path d="M54.088 26.8063H59.251V7.78805H54.088V26.8063ZM56.6816 5.33649C58.2208 5.33649 59.4813 4.13547 59.4813 2.66205C59.4813 1.20102 58.2208 0 56.6816 0C55.1546 0 53.8941 1.20102 53.8941 2.66205C53.8941 4.13547 55.1546 5.33649 56.6816 5.33649Z" fill="#80FB5D"/>
<path d="M79.0357 7.78805H73.5697L69.7157 21.3955H69.5218L65.6556 7.78805H60.2018L66.71 26.8063H72.5274L79.0357 7.78805Z" fill="#80FB5D"/>
<path d="M87.8218 27.1777C92.4272 27.1777 95.5299 24.8871 96.257 21.3583L91.4819 21.0364C90.9608 22.4851 89.6276 23.2403 87.9066 23.2403C85.3251 23.2403 83.689 21.4945 83.689 18.6591V18.6468H96.3661V17.1981C96.3661 10.7349 92.5363 7.54042 87.6158 7.54042C82.1377 7.54042 78.5866 11.5149 78.5866 17.3838C78.5866 23.4137 82.0892 27.1777 87.8218 27.1777ZM83.689 15.378C83.7981 13.2112 85.41 11.4778 87.7006 11.4778C89.9427 11.4778 91.494 13.1122 91.5062 15.378H83.689Z" fill="#80FB5D"/>
<path d="M101.98 26.8063H107.094L111.809 10.2272H112.003L116.73 26.8063H121.844L128.946 1.44865H123.214L119.105 19.1049H118.887L114.366 1.44865H109.458L104.925 19.0677H104.719L100.61 1.44865H94.8778L101.98 26.8063Z" fill="#80FB5D"/>
<path d="M136.363 27.1777C142.01 27.1777 145.525 23.228 145.525 17.3714C145.525 11.4778 142.01 7.54042 136.363 7.54042C130.715 7.54042 127.2 11.4778 127.2 17.3714C127.2 23.228 130.715 27.1777 136.363 27.1777ZM136.387 23.0918C133.781 23.0918 132.448 20.6526 132.448 17.3343C132.448 14.016 133.781 11.5645 136.387 11.5645C138.944 11.5645 140.277 14.016 140.277 17.3343C140.277 20.6526 138.944 23.0918 136.387 23.0918Z" fill="#80FB5D"/>
<path d="M147.176 26.8063H152.339V16.0466C152.351 13.7189 153.999 12.1216 156.084 12.1216C156.787 12.1216 157.356 12.3197 157.841 12.5674L159.392 8.20903C158.714 7.78805 157.841 7.51566 156.847 7.51566C154.751 7.51566 153.054 8.75382 152.375 11.1063H152.181V7.78805H147.176V26.8063Z" fill="#80FB5D"/>
<path d="M160.101 26.8063H165.264V20.764L166.657 19.142L171.736 26.8063H177.783L170.524 16.0218L177.432 7.78805H171.505L165.542 15.0065H165.264V1.44865H160.101V26.8063Z" fill="#80FB5D"/>
<path d="M188.439 7.78805H184.742V6.51274C184.742 5.22505 185.251 4.46977 186.766 4.46977C187.384 4.46977 188.153 4.52962 188.85 4.87805V0.696864C188.208 0.498758 187.275 0.260014 185.688 0.260014C182.185 0.260014 179.579 2.27822 179.579 6.41369V7.78805H176.949V11.7502H179.579V26.8063H184.742V11.7502H188.439V7.78805Z" fill="#80FB5D"/>
<path d="M195.743 0.696864H190.58V26.8063H195.743V0.696864Z" fill="#80FB5D"/>
<path d="M206.584 27.1777C212.231 27.1777 215.746 23.228 215.746 17.3714C215.746 11.4778 212.231 7.54042 206.584 7.54042C200.936 7.54042 197.421 11.4778 197.421 17.3714C197.421 23.228 200.936 27.1777 206.584 27.1777ZM206.608 23.0918C204.002 23.0918 202.669 20.6526 202.669 17.3343C202.669 14.016 204.002 11.5645 206.608 11.5645C209.165 11.5645 210.498 14.016 210.498 17.3343C210.498 20.6526 209.165 23.0918 206.608 23.0918Z" fill="#80FB5D"/>
<path d="M220.602 26.8063H226.056L229.256 14.8456H229.486L232.686 26.8063H238.152L243.206 7.78805H237.994L235.158 20.4916H235.001L231.946 7.78805H226.82L223.814 20.5659H223.645L220.76 7.78805H215.536L220.602 26.8063Z" fill="#80FB5D"/>
</svg>
