<svg width="256" height="256" viewBox="0 0 256 256" fill="none" xmlns="http://www.w3.org/2000/svg">
<rect x="76.1436" y="26.9128" width="103.056" height="101.744" fill="#16DF44"/>
<rect x="76.1436" y="133.908" width="103.056" height="101.744" fill="#020202"/>
<path d="M128 0C57.6 0 0 57.6 0 128C0 198.4 57.6 256 128 256C198.4 256 256 198.4 256 128C256 57.6 198.4 0 128 0ZM121.6 54.4H134.4L156.8 128.8H141.6L128 83.2L113.6 128.8H98.4L121.6 54.4ZM162.4 185.6L128 159.2L94.4 185.6L84 178.4L96.8 136.8H112L105.6 159.2L125.6 144H132.8L152 159.2L144 136.8H159.2L172 178.4L162.4 185.6Z" fill="white"/>
</svg>
