<svg width="244" height="200" viewBox="0 0 244 200" fill="none" xmlns="http://www.w3.org/2000/svg">
<path d="M5.6235 199.629L7.46568 193.846H16.4221L18.2643 199.629H23.8878L15.3313 174.271H8.56857L0 199.629H5.6235ZM8.79884 189.661L11.853 180.066H12.0469L15.101 189.661H8.79884Z" fill="#001521"/>
<path d="M32.6163 200C37.5732 200 40.688 197.028 40.9304 192.658H36.0583C35.7553 194.688 34.4464 195.827 32.6769 195.827C30.2651 195.827 28.7017 193.76 28.7017 190.119C28.7017 186.529 30.2772 184.473 32.6769 184.473C34.5676 184.473 35.7795 185.749 36.0583 187.643H40.9304C40.7122 183.248 37.452 180.363 32.5921 180.363C26.9443 180.363 23.4539 184.362 23.4539 190.194C23.4539 195.976 26.8837 200 32.6163 200Z" fill="#001521"/>
<path d="M52.4313 180.61H48.9287V176.054H43.7658V180.61H41.2206V184.572H43.7658V194.478C43.7415 198.205 46.226 200.049 49.971 199.889C51.3042 199.839 52.2495 199.567 52.7706 199.393L51.9586 195.468C51.7041 195.518 51.1587 195.642 50.6739 195.642C49.6438 195.642 48.9287 195.245 48.9287 193.784V184.572H52.4313V180.61Z" fill="#001521"/>
<path d="M54.088 199.629H59.251V180.61H54.088V199.629ZM56.6816 178.159C58.2208 178.159 59.4813 176.958 59.4813 175.484C59.4813 174.023 58.2208 172.822 56.6816 172.822C55.1546 172.822 53.8941 174.023 53.8941 175.484C53.8941 176.958 55.1546 178.159 56.6816 178.159Z" fill="#001521"/>
<path d="M79.0357 180.61H73.5697L69.7157 194.218H69.5218L65.6556 180.61H60.2018L66.71 199.629H72.5274L79.0357 180.61Z" fill="#001521"/>
<path d="M87.8218 200C92.4272 200 95.5299 197.709 96.257 194.181L91.4819 193.859C90.9608 195.307 89.6276 196.063 87.9066 196.063C85.3251 196.063 83.689 194.317 83.689 191.481V191.469H96.3661V190.02C96.3661 183.557 92.5363 180.363 87.6158 180.363C82.1377 180.363 78.5866 184.337 78.5866 190.206C78.5866 196.236 82.0892 200 87.8218 200ZM83.689 188.2C83.7981 186.033 85.41 184.3 87.7006 184.3C89.9427 184.3 91.494 185.934 91.5062 188.2H83.689Z" fill="#001521"/>
<path d="M101.98 199.629H107.094L111.809 183.05H112.003L116.73 199.629H121.844L128.946 174.271H123.214L119.105 191.927H118.887L114.366 174.271H109.458L104.925 191.89H104.719L100.61 174.271H94.8778L101.98 199.629Z" fill="#001521"/>
<path d="M136.363 200C142.01 200 145.525 196.05 145.525 190.194C145.525 184.3 142.01 180.363 136.363 180.363C130.715 180.363 127.2 184.3 127.2 190.194C127.2 196.05 130.715 200 136.363 200ZM136.387 195.914C133.781 195.914 132.448 193.475 132.448 190.157C132.448 186.838 133.781 184.387 136.387 184.387C138.944 184.387 140.277 186.838 140.277 190.157C140.277 193.475 138.944 195.914 136.387 195.914Z" fill="#001521"/>
<path d="M147.176 199.629H152.339V188.869C152.351 186.541 153.999 184.944 156.084 184.944C156.787 184.944 157.356 185.142 157.841 185.39L159.392 181.031C158.714 180.61 157.841 180.338 156.847 180.338C154.751 180.338 153.054 181.576 152.375 183.929H152.181V180.61H147.176V199.629Z" fill="#001521"/>
<path d="M160.101 199.629H165.264V193.586L166.657 191.964L171.736 199.629H177.783L170.524 188.844L177.432 180.61H171.505L165.542 187.829H165.264V174.271H160.101V199.629Z" fill="#001521"/>
<path d="M188.439 180.61H184.742V179.335C184.742 178.047 185.251 177.292 186.766 177.292C187.384 177.292 188.153 177.352 188.85 177.7V173.519C188.208 173.321 187.275 173.082 185.688 173.082C182.185 173.082 179.579 175.1 179.579 179.236V180.61H176.949V184.572H179.579V199.629H184.742V184.572H188.439V180.61Z" fill="#001521"/>
<path d="M195.743 173.519H190.58V199.629H195.743V173.519Z" fill="#001521"/>
<path d="M206.584 200C212.231 200 215.746 196.05 215.746 190.194C215.746 184.3 212.231 180.363 206.584 180.363C200.936 180.363 197.421 184.3 197.421 190.194C197.421 196.05 200.936 200 206.584 200ZM206.608 195.914C204.002 195.914 202.669 193.475 202.669 190.157C202.669 186.838 204.002 184.387 206.608 184.387C209.165 184.387 210.498 186.838 210.498 190.157C210.498 193.475 209.165 195.914 206.608 195.914Z" fill="#001521"/>
<path d="M220.602 199.629H226.056L229.256 187.668H229.486L232.686 199.629H238.152L243.206 180.61H237.994L235.158 193.314H235.001L231.946 180.61H226.82L223.814 193.388H223.645L220.76 180.61H215.536L220.602 199.629Z" fill="#001521"/>
<path fill-rule="evenodd" clip-rule="evenodd" d="M89.3016 87.1079L75.2612 132.476L85.3166 139.372L121.697 110.652L158.191 139.373L168.367 132.354L153.524 87.1079H139.051L148.006 113.692L125.968 96.3782L125.381 95.9859H118.088L95.0903 114.085L103.65 87.1079H89.3016Z" fill="#001521"/>
<path fill-rule="evenodd" clip-rule="evenodd" d="M91.401 78.3971H105.872L121.682 27.2964L136.961 78.3971H151.423L128.218 1.50678L127.654 0L115.465 0.127392L91.401 78.3971Z" fill="#80FB5D"/>
</svg>
