<svg width="840" height="290" viewBox="0 0 840 290" fill="none" xmlns="http://www.w3.org/2000/svg">
<rect width="840" height="290" fill="white"/>
<path d="M303.624 244.629L305.466 238.846H314.422L316.264 244.629H321.888L313.331 219.271H306.569L298 244.629H303.624ZM306.799 234.661L309.853 225.066H310.047L313.101 234.661H306.799Z" fill="#001521"/>
<path d="M330.616 245C335.573 245 338.688 242.028 338.93 237.658H334.058C333.755 239.688 332.446 240.827 330.677 240.827C328.265 240.827 326.702 238.76 326.702 235.119C326.702 231.529 328.277 229.473 330.677 229.473C332.568 229.473 333.78 230.749 334.058 232.643H338.93C338.712 228.248 335.452 225.363 330.592 225.363C324.944 225.363 321.454 229.362 321.454 235.194C321.454 240.976 324.884 245 330.616 245Z" fill="#001521"/>
<path d="M350.431 225.61H346.929V221.054H341.766V225.61H339.221V229.572H341.766V239.478C341.742 243.205 344.226 245.049 347.971 244.889C349.304 244.839 350.249 244.567 350.771 244.393L349.959 240.468C349.704 240.518 349.159 240.642 348.674 240.642C347.644 240.642 346.929 240.245 346.929 238.784V229.572H350.431V225.61Z" fill="#001521"/>
<path d="M352.088 244.629H357.251V225.61H352.088V244.629ZM354.682 223.159C356.221 223.159 357.481 221.958 357.481 220.484C357.481 219.023 356.221 217.822 354.682 217.822C353.155 217.822 351.894 219.023 351.894 220.484C351.894 221.958 353.155 223.159 354.682 223.159Z" fill="#001521"/>
<path d="M377.036 225.61H371.57L367.716 239.218H367.522L363.656 225.61H358.202L364.71 244.629H370.527L377.036 225.61Z" fill="#001521"/>
<path d="M385.822 245C390.427 245 393.53 242.709 394.257 239.181L389.482 238.859C388.961 240.307 387.628 241.063 385.907 241.063C383.325 241.063 381.689 239.317 381.689 236.481V236.469H394.366V235.02C394.366 228.557 390.536 225.363 385.616 225.363C380.138 225.363 376.587 229.337 376.587 235.206C376.587 241.236 380.089 245 385.822 245ZM381.689 233.2C381.798 231.033 383.41 229.3 385.701 229.3C387.943 229.3 389.494 230.934 389.506 233.2H381.689Z" fill="#001521"/>
<path d="M399.98 244.629H405.094L409.809 228.05H410.003L414.73 244.629H419.844L426.946 219.271H421.214L417.105 236.927H416.887L412.366 219.271H407.458L402.925 236.89H402.719L398.61 219.271H392.878L399.98 244.629Z" fill="#001521"/>
<path d="M434.363 245C440.01 245 443.525 241.05 443.525 235.194C443.525 229.3 440.01 225.363 434.363 225.363C428.715 225.363 425.2 229.3 425.2 235.194C425.2 241.05 428.715 245 434.363 245ZM434.387 240.914C431.781 240.914 430.448 238.475 430.448 235.157C430.448 231.838 431.781 229.387 434.387 229.387C436.944 229.387 438.277 231.838 438.277 235.157C438.277 238.475 436.944 240.914 434.387 240.914Z" fill="#001521"/>
<path d="M445.176 244.629H450.339V233.869C450.351 231.541 451.999 229.944 454.084 229.944C454.787 229.944 455.356 230.142 455.841 230.39L457.392 226.031C456.714 225.61 455.841 225.338 454.847 225.338C452.751 225.338 451.054 226.576 450.375 228.929H450.181V225.61H445.176V244.629Z" fill="#001521"/>
<path d="M458.101 244.629H463.264V238.586L464.657 236.964L469.736 244.629H475.783L468.524 233.844L475.432 225.61H469.505L463.542 232.829H463.264V219.271H458.101V244.629Z" fill="#001521"/>
<path d="M486.439 225.61H482.742V224.335C482.742 223.047 483.251 222.292 484.766 222.292C485.384 222.292 486.153 222.352 486.85 222.7V218.519C486.208 218.321 485.275 218.082 483.688 218.082C480.185 218.082 477.579 220.1 477.579 224.236V225.61H474.949V229.572H477.579V244.629H482.742V229.572H486.439V225.61Z" fill="#001521"/>
<path d="M493.743 218.519H488.58V244.629H493.743V218.519Z" fill="#001521"/>
<path d="M504.584 245C510.231 245 513.746 241.05 513.746 235.194C513.746 229.3 510.231 225.363 504.584 225.363C498.936 225.363 495.421 229.3 495.421 235.194C495.421 241.05 498.936 245 504.584 245ZM504.608 240.914C502.002 240.914 500.669 238.475 500.669 235.157C500.669 231.838 502.002 229.387 504.608 229.387C507.165 229.387 508.498 231.838 508.498 235.157C508.498 238.475 507.165 240.914 504.608 240.914Z" fill="#001521"/>
<path d="M518.602 244.629H524.056L527.256 232.668H527.486L530.686 244.629H536.152L541.206 225.61H535.994L533.158 238.314H533.001L529.946 225.61H524.82L521.814 238.388H521.645L518.76 225.61H513.536L518.602 244.629Z" fill="#001521"/>
<path fill-rule="evenodd" clip-rule="evenodd" d="M387.302 132.108L373.261 177.476L383.317 184.372L419.697 155.652L456.191 184.373L466.367 177.354L451.524 132.108H437.051L446.006 158.692L423.968 141.378L423.381 140.986H416.088L393.09 159.085L401.65 132.108H387.302Z" fill="#001521"/>
<path fill-rule="evenodd" clip-rule="evenodd" d="M389.401 123.397H403.872L419.682 72.2964L434.961 123.397H449.423L426.218 46.5068L425.654 45L413.465 45.1274L389.401 123.397Z" fill="#80FB5D"/>
</svg>
