<?xml version="1.0" standalone="no"?>
<!DOCTYPE svg PUBLIC "-//W3C//DTD SVG 20010904//EN"
 "http://www.w3.org/TR/2001/REC-SVG-20010904/DTD/svg10.dtd">
<svg version="1.0" xmlns="http://www.w3.org/2000/svg"
 width="513.000000pt" height="513.000000pt" viewBox="0 0 513.000000 513.000000"
 preserveAspectRatio="xMidYMid meet">
<metadata>
Created by potrace 1.11, written by Peter Selinger 2001-2013
</metadata>
<g transform="translate(0.000000,513.000000) scale(0.100000,-0.100000)"
fill="#000000" stroke="none">
<path d="M2377 4763 c-3 -5 -172 -550 -376 -1213 -205 -663 -378 -1224 -386
-1247 l-14 -43 208 0 207 0 270 865 c148 476 271 865 274 865 3 0 123 -389
265 -865 l260 -865 209 0 c184 0 207 2 202 16 -4 11 -717 2359 -752 2477 -5
15 -22 17 -184 17 -98 0 -181 -3 -183 -7z"/>
<path d="M1515 1978 c-14 -38 -415 -1395 -415 -1405 0 -11 250 -186 285 -199
8 -4 246 177 595 451 l581 457 52 -41 c29 -22 291 -227 582 -456 311 -244 537
-414 546 -412 11 3 232 151 287 193 2 1 -97 322 -220 713 l-223 711 -209 0
-208 0 6 -22 c3 -13 64 -209 136 -436 71 -227 130 -417 130 -422 0 -5 -172
126 -382 290 l-383 300 -115 0 -115 -1 -385 -303 c-212 -167 -386 -302 -388
-301 -2 2 56 201 127 443 72 241 131 442 131 446 0 3 -92 6 -205 6 -155 0
-207 -3 -210 -12z"/>
</g>
</svg>
