<svg width="168" height="32" viewBox="0 0 168 32" fill="none" xmlns="http://www.w3.org/2000/svg">
<path d="M40 22.8L44.6 9.60001H47.5L52.1 22.8H49.6L48.5 19.6H43.5L42.4 22.8H40ZM47.9 17.6L46.1 12.3H46L44.2 17.6H47.9Z" fill="white"/>
<path d="M52.4 17.9C52.4 14.9 54.2 12.8 57.1 12.8C59.5 12.8 61.2 14.2 61.3 16.3H59.1C58.9 15.3 58.2 14.6 57.1 14.6C55.7 14.6 54.7 15.8 54.7 17.8C54.7 19.8 55.6 21 57.1 21C58.1 21 58.9 20.4 59.1 19.3H61.3C61.1 21.4 59.6 22.9 57.1 22.9C54.2 23 52.4 20.9 52.4 17.9Z" fill="white"/>
<path d="M67.5 14.7H65.6V19.8C65.6 20.7 66.1 20.9 66.7 20.9C67 20.9 67.3 20.8 67.4 20.8L67.8 22.6C67.5 22.7 67.1 22.8 66.4 22.8C64.7 22.9 63.3 21.9 63.3 20.1V14.6H61.9V12.8H63.3V10.4H65.6V12.8H67.5V14.7Z" fill="white"/>
<path d="M68.5 10.3C68.5 9.6 69.1 9 69.9 9C70.6 9 71.2 9.6 71.2 10.3C71.2 11 70.6 11.6 69.9 11.6C69.1 11.5 68.5 11 68.5 10.3ZM68.7 12.9H71V22.8H68.7V12.9Z" fill="white"/>
<path d="M78 22.8H75.4L71.9 12.9H74.4L76.7 20.2H76.8L79.1 12.9H81.6L78 22.8Z" fill="white"/>
<path d="M81.6 17.9C81.6 14.9 83.4 12.8 86.3 12.8C88.7 12.8 90.8 14.3 90.8 17.8V18.5H84C84 20.2 85 21.2 86.5 21.2C87.5 21.2 88.3 20.8 88.6 19.9L90.8 20.1C90.4 21.8 88.8 22.9 86.5 22.9C83.5 23 81.6 21 81.6 17.9ZM88.6 16.9C88.6 15.6 87.7 14.6 86.3 14.6C84.9 14.6 84 15.7 83.9 16.9H88.6Z" fill="white"/>
<path d="M90.3 9.60001H92.9L95.3 19.3H95.4L97.9 9.60001H100.2L102.7 19.3H102.8L105.2 9.60001H107.8L104.1 22.8H101.7L99.1 13.6H99L96.4 22.8H94L90.3 9.60001Z" fill="white"/>
<path d="M107.2 17.9C107.2 14.8 109 12.8 111.9 12.8C114.8 12.8 116.6 14.8 116.6 17.9C116.6 21 114.8 23 111.9 23C109 23 107.2 21 107.2 17.9ZM114.3 17.9C114.3 16.1 113.5 14.6 111.9 14.6C110.3 14.6 109.5 16 109.5 17.9C109.5 19.8 110.3 21.1 111.9 21.1C113.5 21.1 114.3 19.7 114.3 17.9Z" fill="white"/>
<path d="M117.9 12.9H120.2V14.5H120.3C120.7 13.4 121.6 12.7 122.7 12.7C123.2 12.7 123.7 12.8 124 13.1L123.3 15C123 14.9 122.8 14.8 122.4 14.8C121.2 14.8 120.2 15.7 120.2 16.9V22.7H117.9V12.9V12.9Z" fill="white"/>
<path d="M124.7 9.60001H127V16.9H127.2L130.7 12.9H133.4L129.6 17.2L133.7 22.8H130.9L127.9 18.6L127.1 19.5V22.8H124.8V9.60001H124.7Z" fill="white"/>
<path d="M139.3 14.7H137.2V22.8H134.9V14.7H133.4V12.9H134.9V12C134.9 10 136.3 9 138 9C138.8 9 139.5 9.2 139.8 9.3L139.3 11.1C139.1 11 138.8 11 138.4 11C137.5 11 137.2 11.4 137.2 12.2V13H139.3V14.7Z" fill="white"/>
<path d="M142.8 22.8H140.5V9.60001H142.8V22.8Z" fill="white"/>
<path d="M144 17.9C144 14.8 145.8 12.8 148.7 12.8C151.6 12.8 153.4 14.8 153.4 17.9C153.4 21 151.6 23 148.7 23C145.8 23 144 21 144 17.9ZM151.1 17.9C151.1 16.1 150.3 14.6 148.7 14.6C147.1 14.6 146.3 16 146.3 17.9C146.3 19.8 147.1 21.1 148.7 21.1C150.3 21.1 151.1 19.7 151.1 17.9Z" fill="white"/>
<path d="M153.7 12.9H156.1L157.8 19.8H157.9L159.7 12.9H162L163.8 19.8H163.9L165.6 12.9H168L165.2 22.8H162.8L160.9 16.1H160.8L158.9 22.8H156.5L153.7 12.9Z" fill="white"/>
<path d="M16 0C7.2 0 0 7.2 0 16C0 24.8 7.2 32 16 32C24.8 32 32 24.8 32 16C32 7.2 24.8 0 16 0ZM15.2 6.8H16.8L19.6 16.1H17.7L16 10.4L14.2 16.1H12.3L15.2 6.8ZM20.3 23.2L16 19.9L11.8 23.2L10.5 22.3L12.1 17.1H14L13.2 19.9L15.7 18H16.6L19 19.9L18 17.1H19.9L21.5 22.3L20.3 23.2Z" fill="white"/>
</svg>
