<?xml version="1.0" encoding="UTF-8" standalone="no"?>
<svg
   xmlns:dc="http://purl.org/dc/elements/1.1/"
   xmlns:cc="http://creativecommons.org/ns#"
   xmlns:rdf="http://www.w3.org/1999/02/22-rdf-syntax-ns#"
   xmlns:svg="http://www.w3.org/2000/svg"
   xmlns="http://www.w3.org/2000/svg"
   xmlns:sodipodi="http://sodipodi.sourceforge.net/DTD/sodipodi-0.dtd"
   xmlns:inkscape="http://www.inkscape.org/namespaces/inkscape"
   width="289.67023"
   height="31.336639"
   viewBox="0 0 289.67023 31.336639"
   version="1.1"
   id="svg3783"
   sodipodi:docname="AW_white.svg"
   inkscape:version="0.92.2 2405546, 2018-03-11">
  <metadata
     id="metadata3787">
    <rdf:RDF>
      <cc:Work
         rdf:about="">
        <dc:format>image/svg+xml</dc:format>
        <dc:type
           rdf:resource="http://purl.org/dc/dcmitype/StillImage" />
        <dc:title>AW white</dc:title>
      </cc:Work>
    </rdf:RDF>
  </metadata>
  <sodipodi:namedview
     pagecolor="#ffffff"
     bordercolor="#666666"
     borderopacity="1"
     objecttolerance="10"
     gridtolerance="10"
     guidetolerance="10"
     inkscape:pageopacity="0"
     inkscape:pageshadow="2"
     inkscape:window-width="1920"
     inkscape:window-height="1080"
     id="namedview3785"
     showgrid="false"
     fit-margin-top="0"
     fit-margin-left="0"
     fit-margin-right="0"
     fit-margin-bottom="0"
     inkscape:zoom="3.1769437"
     inkscape:cx="103.57317"
     inkscape:cy="15.23908"
     inkscape:window-x="0"
     inkscape:window-y="0"
     inkscape:window-maximized="0"
     inkscape:current-layer="svg3783" />
  <!-- Generator: Sketch 50.2 (55047) - http://www.bohemiancoding.com/sketch -->
  <title
     id="title3770">AW white</title>
  <desc
     id="desc3772">Created with Sketch.</desc>
  <defs
     id="defs3774" />
  <path
     style="fill:#ffffff;fill-rule:evenodd;stroke:none;stroke-width:1"
     inkscape:connector-curvature="0"
     id="ActiveWorkflow"
     d="M 15.58244,19.31707 14.59512,15.88293 C 14.16585,14.39479 13.73659,12.86375 13.30732,11.28976 12.87805,9.71576 12.46309,8.1561 12.06244,6.61073 h -0.17171 c -0.40065,1.57399 -0.8013,3.14081 -1.20195,4.70049 -0.40065,1.55968 -0.82992,3.08357 -1.28781,4.57171 l -0.98731,3.43414 z m 1.1161,3.90634 H 7.29756 L 5.10829,30.82146 H 0 L 9.18634,2.74732 h 5.83805 l 9.14341,28.07414 h -5.28 z m 9.05756,-2.91902 c 0,-1.7457 0.28617,-3.30536 0.85853,-4.67903 0.57236,-1.37366 1.34504,-2.53267 2.31805,-3.47707 0.97302,-0.94439 2.09626,-1.66699 3.36976,-2.1678 1.2735,-0.50082 2.61137,-0.75122 4.01366,-0.75122 1.37366,0 2.56845,0.23609 3.58439,0.70829 1.01594,0.4722 1.88162,1.0517 2.59707,1.73854 l -2.36097,3.13365 c -0.57237,-0.4865 -1.14472,-0.86569 -1.71708,-1.13756 -0.57236,-0.27187 -1.18764,-0.4078 -1.84585,-0.4078 -1.71708,0 -3.10504,0.63674 -4.1639,1.91024 -1.05887,1.27351 -1.5883,2.98341 -1.5883,5.12976 0,2.11773 0.52227,3.81333 1.56683,5.08683 1.04456,1.2735 2.39674,1.91024 4.05659,1.91024 0.85854,0 1.65268,-0.17886 2.38244,-0.53658 0.72976,-0.35773 1.38081,-0.77984 1.95317,-1.26634 l 2.06048,3.13365 c -1.00163,0.88716 -2.1034,1.55968 -3.30536,2.01756 -1.20196,0.45789 -2.4039,0.68683 -3.60586,0.68683 -1.4309,0 -2.76877,-0.24325 -4.01365,-0.72975 C 30.67121,30.12032 29.5909,29.40488 28.67512,28.46049 27.75934,27.51609 27.0439,26.35708 26.52878,24.98341 26.01365,23.60975 25.7561,22.05009 25.7561,20.30439 Z M 47.69171,13.65073 H 44.68683 V 9.95902 l 3.26244,-0.21463 0.60097,-5.7522 h 4.12098 v 5.7522 h 5.36585 v 3.90634 h -5.36585 v 10.04488 c 0,2.46115 0.98731,3.69171 2.96195,3.69171 0.37203,0 0.75122,-0.0429 1.13756,-0.12878 0.38634,-0.0858 0.73691,-0.20033 1.05171,-0.34342 l 0.85854,3.64878 c -0.57237,0.20033 -1.22342,0.37919 -1.95318,0.53659 -0.72976,0.1574 -1.50959,0.23609 -2.33951,0.23609 -1.23057,0 -2.26796,-0.18601 -3.11219,-0.55804 C 50.43186,30.4065 49.74504,29.88423 49.21561,29.21171 48.68617,28.53918 48.29984,27.73789 48.05658,26.8078 47.81333,25.87772 47.69171,24.84033 47.69171,23.69561 Z M 64.94829,6.05268 c -0.88716,0 -1.61691,-0.25756 -2.18927,-0.77268 -0.57236,-0.51513 -0.85853,-1.18764 -0.85853,-2.01756 0,-0.82992 0.28617,-1.50959 0.85853,-2.03903 0.57236,-0.52943 1.30211,-0.79414 2.18927,-0.79414 0.88716,0 1.61691,0.26471 2.18927,0.79414 0.57236,0.52944 0.85854,1.20911 0.85854,2.03903 0,0.82992 -0.28618,1.50243 -0.85854,2.01756 -0.57236,0.51512 -1.30211,0.77268 -2.18927,0.77268 z m -2.48975,3.69171 h 4.93658 v 21.07707 h -4.93658 z m 8.62829,0 h 5.02244 l 3.34829,10.94634 c 0.28618,1.03025 0.57951,2.07479 0.88,3.13366 0.30049,1.05887 0.59382,2.13203 0.88,3.21951 h 0.17171 c 0.3148,-1.08748 0.61528,-2.16064 0.90146,-3.21951 0.28618,-1.05887 0.58667,-2.10341 0.90146,-3.13366 l 3.3483,-10.94634 h 4.76487 l -7.16878,21.07707 h -5.70926 z m 22.49366,10.56 c 0,-1.71708 0.27186,-3.26243 0.81561,-4.6361 0.54374,-1.37366 1.26633,-2.53268 2.1678,-3.47707 0.90147,-0.9444 1.93886,-1.67415 3.1122,-2.18927 1.17334,-0.51512 2.37527,-0.77268 3.60585,-0.77268 1.4309,0 2.69008,0.24325 3.77756,0.72975 1.08749,0.48651 1.99609,1.17333 2.72585,2.06049 0.72976,0.88716 1.28065,1.94601 1.65269,3.17659 0.37203,1.23057 0.55805,2.5756 0.55805,4.03512 0,0.97301 -0.0716,1.74569 -0.21464,2.31805 H 98.38829 c 0.22895,1.9174 0.8943,3.39121 1.9961,4.42146 1.10179,1.03025 2.51121,1.54537 4.22829,1.54537 0.91578,0 1.76715,-0.13594 2.55415,-0.40781 0.78699,-0.27187 1.56682,-0.65105 2.33951,-1.13756 l 1.67415,3.09073 c -1.00163,0.65822 -2.11772,1.20195 -3.3483,1.63122 -1.23057,0.42927 -2.51836,0.6439 -3.86341,0.6439 -1.45952,0 -2.81886,-0.2504 -4.07805,-0.75122 -1.25919,-0.50081 -2.36097,-1.22341 -3.30537,-2.1678 -0.94439,-0.9444 -1.68129,-2.09625 -2.21073,-3.45561 -0.52943,-1.35936 -0.79414,-2.91186 -0.79414,-4.65756 z m 14.12292,-1.88878 c 0,-1.68846 -0.35056,-3.00488 -1.0517,-3.94927 -0.70115,-0.9444 -1.78146,-1.41658 -3.24098,-1.41658 -1.25919,0 -2.36097,0.45072 -3.30537,1.35219 -0.94439,0.90147 -1.53105,2.23934 -1.76,4.01366 z m 6.56781,-15.66829 h 5.15122 l 2.4039,14.16585 c 0.22894,1.51675 0.46504,3.01918 0.70829,4.50732 0.24326,1.48813 0.47935,2.97625 0.7083,4.46439 h 0.1717 c 0.28618,-1.48814 0.57951,-2.98341 0.88,-4.48586 0.30049,-1.50244 0.60813,-2.99771 0.92293,-4.48585 l 3.47707,-14.16585 h 4.29269 l 3.47707,14.16585 c 0.3148,1.45952 0.62244,2.94048 0.92293,4.44293 0.30049,1.50244 0.60813,3.01202 0.92292,4.52878 h 0.17171 c 0.22894,-1.51676 0.45789,-3.01918 0.68683,-4.50732 l 0.68683,-4.46439 2.4039,-14.16585 h 4.80781 l -5.40878,28.07414 h -6.18147 L 132,16.05463 c -0.22894,-1.08748 -0.44358,-2.1678 -0.6439,-3.24097 -0.20033,-1.07318 -0.40065,-2.15349 -0.60098,-3.24098 h -0.17171 c -0.20032,1.08749 -0.40065,2.1678 -0.60097,3.24098 -0.20033,1.07317 -0.41496,2.15349 -0.6439,3.24097 l -3.39122,14.76683 h -6.09561 z m 35.28585,17.55707 c 0,-1.7457 0.27187,-3.30536 0.81561,-4.67903 0.54374,-1.37366 1.28065,-2.53267 2.21073,-3.47707 0.93009,-0.94439 1.99609,-1.66699 3.19805,-2.1678 1.20196,-0.50082 2.46113,-0.75122 3.77756,-0.75122 1.31643,0 2.58276,0.2504 3.79903,0.75122 1.21626,0.50081 2.28227,1.22341 3.19805,2.1678 0.91577,0.9444 1.65268,2.10341 2.21073,3.47707 0.55805,1.37367 0.83707,2.93333 0.83707,4.67903 0,1.7457 -0.27902,3.30536 -0.83707,4.67902 -0.55805,1.37367 -1.29496,2.53268 -2.21073,3.47708 -0.91578,0.94439 -1.98179,1.65983 -3.19805,2.14634 -1.21627,0.4865 -2.4826,0.72975 -3.79903,0.72975 -1.31643,0 -2.5756,-0.24325 -3.77756,-0.72975 -1.20196,-0.48651 -2.26796,-1.20195 -3.19805,-2.14634 -0.93008,-0.9444 -1.66699,-2.10341 -2.21073,-3.47708 -0.54374,-1.37366 -0.81561,-2.93332 -0.81561,-4.67902 z m 5.06537,0 c 0,2.11773 0.43642,3.81333 1.30927,5.08683 0.87285,1.2735 2.08194,1.91024 3.62731,1.91024 1.54538,0 2.76162,-0.63674 3.64878,-1.91024 0.88716,-1.2735 1.33074,-2.9691 1.33074,-5.08683 0,-2.14635 -0.44358,-3.85625 -1.33074,-5.12976 -0.88716,-1.2735 -2.1034,-1.91024 -3.64878,-1.91024 -1.54537,0 -2.75446,0.63674 -3.62731,1.91024 -0.87285,1.27351 -1.30927,2.98341 -1.30927,5.12976 z m 19.87512,-10.56 h 4.07805 l 0.34341,3.73463 h 0.17171 c 0.74407,-1.37366 1.64552,-2.42536 2.70439,-3.15512 1.05887,-0.72976 2.14634,-1.09463 3.26244,-1.09463 1.00163,0 1.80292,0.14308 2.4039,0.42927 l -0.85853,4.29268 c -0.37204,-0.11447 -0.71545,-0.20033 -1.03025,-0.25756 -0.3148,-0.0572 -0.70113,-0.0858 -1.15902,-0.0858 -0.82993,0 -1.70276,0.32195 -2.61854,0.96585 -0.91578,0.64391 -1.70276,1.76715 -2.36097,3.36976 v 12.87805 h -4.93659 z M 190.50927,0.51512 H 195.36 v 18.93073 h 0.12878 l 7.81268,-9.70146 h 5.40878 l -7.2117,8.58536 7.94146,12.49171 h -5.36585 l -5.40879,-9.14341 -3.30536,3.77756 v 5.36585 h -4.85073 z m 33.18244,3.90634 c -0.77269,-0.34341 -1.54537,-0.51512 -2.31805,-0.51512 -1.77432,0 -2.66147,1.18763 -2.66147,3.56293 v 2.27512 h 4.12098 v 3.90634 h -4.12098 v 17.17073 h -4.93658 V 13.65073 h -2.83317 V 9.95902 l 2.83317,-0.21463 V 7.55512 c 0,-1.08748 0.12878,-2.09625 0.38634,-3.02634 0.25756,-0.93009 0.67252,-1.73138 1.24488,-2.4039 0.57236,-0.67253 1.29495,-1.1948 2.1678,-1.56683 C 218.44748,0.18601 219.51349,0 220.77268,0 c 0.74407,0 1.45236,0.0715 2.12488,0.21463 0.67252,0.14309 1.25203,0.3148 1.73854,0.51513 z m 2.83317,-3.90634 h 4.93658 v 25.15512 c 0,0.60098 0.11447,1.02309 0.34342,1.26634 0.22894,0.24326 0.47219,0.36488 0.72975,0.36488 h 0.32195 c 0.10017,0 0.25041,-0.0286 0.45074,-0.0858 l 0.6439,3.69171 c -0.65822,0.28618 -1.53105,0.42927 -2.61854,0.42927 -1.77432,0 -3.01918,-0.52943 -3.73463,-1.5883 -0.71545,-1.05886 -1.07317,-2.50405 -1.07317,-4.3356 z m 10.25951,19.78927 c 0,-1.7457 0.27187,-3.30536 0.81561,-4.67903 0.54374,-1.37366 1.28064,-2.53267 2.21073,-3.47707 0.93009,-0.94439 1.99609,-1.66699 3.19805,-2.1678 1.20196,-0.50082 2.46113,-0.75122 3.77756,-0.75122 1.31643,0 2.58276,0.2504 3.79903,0.75122 1.21626,0.50081 2.28227,1.22341 3.19804,2.1678 0.91578,0.9444 1.65268,2.10341 2.21074,3.47707 0.55805,1.37367 0.83707,2.93333 0.83707,4.67903 0,1.7457 -0.27902,3.30536 -0.83707,4.67902 -0.55806,1.37367 -1.29496,2.53268 -2.21074,3.47708 -0.91577,0.94439 -1.98178,1.65983 -3.19804,2.14634 -1.21627,0.4865 -2.4826,0.72975 -3.79903,0.72975 -1.31643,0 -2.5756,-0.24325 -3.77756,-0.72975 -1.20196,-0.48651 -2.26796,-1.20195 -3.19805,-2.14634 -0.93009,-0.9444 -1.66699,-2.10341 -2.21073,-3.47708 -0.54374,-1.37366 -0.81561,-2.93332 -0.81561,-4.67902 z m 5.06536,0 c 0,2.11773 0.43642,3.81333 1.30927,5.08683 0.87285,1.2735 2.08195,1.91024 3.62732,1.91024 1.54537,0 2.76162,-0.63674 3.64878,-1.91024 0.88716,-1.2735 1.33073,-2.9691 1.33073,-5.08683 0,-2.14635 -0.44357,-3.85625 -1.33073,-5.12976 -0.88716,-1.2735 -2.10341,-1.91024 -3.64878,-1.91024 -1.54537,0 -2.75447,0.63674 -3.62732,1.91024 -0.87285,1.27351 -1.30927,2.98341 -1.30927,5.12976 z m 17.77171,-10.56 h 4.97951 l 2.53269,10.94634 c 0.22894,1.00163 0.42211,2.00325 0.57951,3.00488 0.1574,1.00163 0.33626,2.01756 0.53658,3.0478 h 0.17171 c 0.20033,-1.03024 0.40781,-2.04617 0.62244,-3.0478 0.21464,-1.00163 0.45073,-2.00325 0.70829,-3.00488 l 2.74732,-10.94634 h 4.50732 l 2.79024,10.94634 c 0.25757,1.00163 0.50081,2.00325 0.72976,3.00488 0.22894,1.00163 0.45788,2.01756 0.68683,3.0478 h 0.1717 c 0.20033,-1.03024 0.38635,-2.04617 0.55805,-3.0478 0.17171,-1.00163 0.35773,-2.00325 0.55805,-3.00488 l 2.53269,-10.94634 h 4.63609 l -5.36585,21.07707 h -5.88098 l -2.44683,-9.83024 c -0.22894,-1.00163 -0.44357,-1.99609 -0.6439,-2.98342 -0.20032,-0.98732 -0.41496,-2.03902 -0.6439,-3.15512 h -0.17171 c -0.20032,1.1161 -0.40065,2.17496 -0.60097,3.17659 -0.20033,1.00163 -0.41496,2.00324 -0.64391,3.00487 l -2.4039,9.78732 h -5.66634 z" />
</svg>
